<svg version="1" xmlns="http://www.w3.org/2000/svg" viewBox="0 0 960 582"><path d="M378.4 68c-7.3 3.8-21.3 13.6-22.1 15.6-.9 2.4.3 2.7 5.4 1.1 10.7-3.5 12.7-1.9 7.1 5.6-1.8 2.4-4.2 5.6-5.3 7.2l-2.1 2.8-15.4-1.7C219.2 85 159 81.7 127 86.6c-24.8 3.8-50 19.6-58.5 36.6-3 6.1-3.5 8-3.5 14.2 0 6.3.5 8.2 3.9 15.2 4.4 9 13.5 23.1 20.6 31.9C102 200 115.2 213 118.4 213c1.2 0-1.6-4.4-10-15.6-16.4-21.8-30.3-46.5-33.9-59.9-5.1-19.4 10.7-34.2 42.8-40 27.6-5.1 81.1-3.1 150.7 5.6 26.5 3.3 84.1 11.7 84.7 12.3.3.2-5.6 11.4-13 24.8C278.8 250.5 231.6 354.8 220.4 404c-3 13.3-3.3 25.9-.6 28.3 3.5 3.1 9.5 1.6 11.2-2.8.7-1.8.3-4-1.2-8.2-3.6-10.1-3-17.3 2.9-34.8 15.3-45 57.1-131.4 103.5-213.5 5.8-10.2 11.1-19.6 11.8-21 1.3-2.4 1.4-2.2 3 4.5 1.9 8.3 6 16.1 10.8 21 6.1 6.1 6.5 4.1 1.2-6.5-4.3-8.6-7-18.5-7-25.9 0-6.3.3-7.1 6.1-16.9 3.3-5.6 6.7-10.2 7.4-10.2.7 0 13.6 2 28.7 4.5 28.1 4.6 44.7 6.9 57.9 8.1 9 .8 11.8-.3 18.8-7.5 8.9-9 11.2-18.5 7.1-29.3-1.1-2.9-2-5.5-2-5.7 0-.2 8.9-.1 19.8.2 20.5.6 43.5 3.2 60.7 6.7 78.1 16 125.5 47.9 139.1 93.7 3.3 11.2 3.8 29.9 1.1 40.3-7.7 28.9-30.2 49.1-74 66.4-24.4 9.6-53.4 16.4-73.7 17.3l-12.5.5-5.9-3.1c-7.2-3.8-9.8-3.9-12.6-.4-1.9 2.4-2.1 3.6-1.6 8.3 1.3 13.1 15.5 45.7 34.4 79 13.9 24.6 21.4 33 35.9 40.2 8.1 4 9.2 4.3 16.7 4.3 6.3 0 9.3-.6 13.3-2.4 6.6-2.9 8-5.6 2.6-4.7-13.5 2.1-16.9 2-23.5-1.1-12.6-5.9-22.8-18.2-34.3-41.2-15.7-31.5-28.4-71.1-23.2-72.5.6-.2 6.6-.9 13.2-1.5 38.8-3.6 89.4-20.5 118.8-39.7 11.8-7.7 27.4-22.8 32.6-31.6 13.7-23.4 14.7-51 2.5-75.6-7.9-16.1-23.4-32.7-42.3-45.4-21.7-14.5-47.1-24.9-81.5-33.4-28.8-7.1-53.5-10.2-86.3-11.1l-23.2-.6-2.6-2.9c-2.7-3-4.4-3.6-4.6-1.6-.1.7-.2 2.2-.3 3.3-.1 1.6-.9 2-4.1 2.2-27 1.6-67.8 9.7-79.6 15.9-1.7.8-3.3 1.3-3.6 1.1-.2-.3 3-5.6 7.1-11.9 8.2-12.2 9.2-15.7 5.6-19.6-3-3.2-8.4-2.9-15.6.8zM473 92.1c2.1 7.6 1.6 12-1.6 14.7-2.9 2.5-2.9 2.5-19.4 1.8-16.1-.6-62.6-4.9-63.6-5.9-.7-.7 20.2-6.3 32.6-8.7 12.3-2.4 35.7-5.3 47.2-5.8 3.6-.2 3.8 0 4.8 3.9z"/><path d="M579.5 165c-.3.5-.3 3.1.1 5.8.6 4.8.6 4.8-8.3 17.2-17.7 24.9-49.5 71.2-66.6 97.1-44.4 67.4-60.6 98.8-54.2 105.2 2.3 2.4 6.2 3.1 10.4 2.1 3.6-.9 3.6-.9 4.3-7.4 1.1-11.3 7.5-26.9 20.7-50.5 11.9-21.2 26.4-43.8 66-103 20.6-30.8 37.7-57 37.9-58.3.8-4.3-8.2-11.6-10.3-8.2zm159.4 54.9c-5 3.3-11.5 9.8-15.3 15.5-4.8 7.2-2.6 12.4 5.8 13.3 3.6.4 5.4 0 8.8-2 8.3-4.8 17.8-16.7 17.8-22.2 0-.9-1.3-3-2.9-4.6-3.9-3.8-8.2-3.8-14.2 0zM868 232.7c-16.5 7.1-30.6 17-46.3 32.7-26.7 26.6-43.4 54.1-52.3 86.3-.8 3.2-33.2 24.6-51.6 34.2-13 6.8-19.9 9.1-27.5 9.1-4.5 0-5.8-.4-8-2.6-4-4-3-10 4.4-26.4 3.4-7.4 6.8-15.2 7.7-17.2.8-2.1 9.5-18.7 19.2-37 14.5-27.1 17.7-34 17.8-37.5.1-5.6-3.2-9.3-8.5-9.3-4.8 0-7.7 2.4-9.9 8.5-.9 2.8-7.2 16.3-13.8 30.2-25.8 53.6-32.2 73.2-27.8 84.8 2.2 5.6 10 12.8 16.3 14.9 8.4 2.9 11.7 2.2 23.8-4.5 13.1-7.3 33.2-20.3 46.6-30.4l9.7-7.2.4 7.1c.2 5 1.1 8.6 2.8 12.1 3.5 7 11.6 14.7 19.6 18.6 11.7 5.8 22.2 4.3 44-6 10.6-5.1 24.9-13.8 27.8-17 3.6-4-.8-3.2-11.7 2.2-22.1 11-43.8 16.8-55 14.8-14.4-2.5-20.6-14.5-17.4-33.4 1.2-6.6 2.2-9.5 4.2-11.9 2.1-2.5 2.5-3.8 2.1-6.1-.7-3.7 3.8-12.3 16.2-31.1 17.1-25.8 51.7-58.7 71.7-68.2 10-4.8 17.5-2.2 17.5 6.1 0 8.5-7.3 17.9-24.9 32.3-14.9 12-14.4 11.5-8.1 9.6 8.9-2.6 17.5-7.1 25.3-13.3 13.9-11 20.5-21.3 19.3-29.8-1.4-10.1-8.8-16.3-20.4-17-5.6-.3-7.7.1-13.2 2.4zM380.8 450c-5.4 1.6-9.9 5.3-12.8 10.4-2.5 4.3-3 6.2-3 12.1 0 5.9.5 7.8 3 12.2 6.9 12.1 22 14.7 32.2 5.5 5.4-4.9 7.8-10.2 7.8-17.7s-2.4-12.8-7.8-17.7c-5.7-5.1-12.6-6.9-19.4-4.8zm12.2 8.3c4.9 3.2 7.3 7.9 7.3 14.2 0 6.3-2.4 11-7.3 14.2-8.9 6.1-20.4-1.9-20.4-14.2 0-8.7 6.6-16.5 13.9-16.5 1.8 0 4.7 1 6.5 2.3zm81.8-8.3c-5.4 1.6-9.9 5.3-12.8 10.4-2.5 4.3-3 6.2-3 12.1 0 5.9.5 7.8 3 12.2 6.9 12.1 22 14.7 32.2 5.5 5.4-4.9 7.8-10.2 7.8-17.7s-2.4-12.8-7.8-17.7c-5.7-5.1-12.6-6.9-19.4-4.8zm12.2 8.3c4.9 3.2 7.3 7.9 7.3 14.2 0 6.3-2.4 11-7.3 14.2-8.9 6.1-20.4-1.9-20.4-14.2 0-8.7 6.6-16.5 13.9-16.5 1.8 0 4.7 1 6.5 2.3zm32.6-7.8c-4.7 1.6-9.1 5.7-11.7 10.7-1.4 2.8-1.9 5.8-1.9 12.1 0 11.1 2.4 16.1 9.5 19.7 6.8 3.4 18.7 3.5 25.8.3 4.7-2.2 4.7-2.2 4.7-7.1 0-3.6.4-5.2 1.6-5.6 1-.4 1.4-1.5 1.2-3.3l-.3-2.8-9.5-.3c-11.9-.4-14 .1-14 3.2 0 2.9 1.6 3.6 8.1 3.6 4.7 0 4.9.1 4.9 2.8 0 3.6-3.1 5.2-10.1 5.2-5.4 0-9.3-1.6-12.4-5-1.7-1.8-2-3.6-2-10.4 0-6.9.3-8.6 2.3-11.4 3.1-4.2 7.1-6.2 12.4-6.2 5.7.1 9 2 10.3 6.1.7 1.9 1.9 3.5 2.9 3.7 3.2.7 4.6-1.7 4.6-7.8 0-6.6-1.6-8.9-5.2-7.3-1.5.6-3.3.5-5.7-.3-4.7-1.7-10.6-1.7-15.5.1zm-244.2.8c-1.1 3 0 5.2 2.9 5.5l2.7.3v30.8l-2.7.3c-2.4.3-2.8.8-2.8 3.3v3l11 .3c13.5.3 15.5-.1 15.5-3.2 0-2.9-1.6-3.6-8.1-3.6H289v-7.7l7.5-.5c6-.4 8.2-1 11.4-3.2 9.2-6.4 9.3-18.2.2-23.8-3.2-2.1-5.1-2.3-17.8-2.6-12.1-.3-14.4-.2-14.9 1.1zm29 7.8c3.8 3 3.6 7.9-.5 11.3-2.5 2.2-4.1 2.6-9 2.6H289v-16h6.4c4.9 0 6.9.5 9 2.1zm16.8-7.9c-1.8 1.8-1.5 3.6.8 5 1.9 1.2 2 2.4 2 16.4v15.2l-2.5.6c-1.8.5-2.5 1.3-2.5 3 0 3.1 1.6 3.6 10.5 3.6 5.4 0 7.6-.4 8.6-1.6 1.8-2.1 0-4.8-3.5-5.2-2.5-.3-2.6-.6-2.6-6.3V476h17v5.9c0 5.8-.1 6-2.7 6.3-2.4.3-2.8.8-2.8 3.3v3h18v-3c0-2.3-.5-3.1-2.2-3.3-2.3-.3-2.3-.5-2.3-15.7 0-14.5.1-15.4 2-16 1.3-.4 2-1.5 2-3 0-3-2.3-3.7-11-3.3-6.5.3-6.5.3-6.5 3.3 0 2.5.4 3 2.8 3.3 2.6.3 2.7.5 2.7 6.3v5.9h-17v-5.9c0-5.7.1-6 2.6-6.3 3.5-.4 5.3-3.1 3.5-5.2-1.7-2-15-2.3-16.9-.4zm92 7.4c.2 7 .6 8.9 2.1 9.8 3 1.9 5.2-.4 5.5-6.3l.3-5.1h7.9v31h-3.4c-4.9 0-6.6.9-6.6 3.5 0 3.2 1.5 3.5 15 3.5 9.5 0 12-.3 13.1-1.6 2.2-2.6-.1-4.9-5.5-5.2l-4.6-.3V457h9v4.7c0 5.9 1 7.6 4.1 7.1 2.3-.3 2.4-.7 2.7-9.6l.3-9.2h-40.2l.3 8.6zm138.7-7c-1.8 2.1 0 4.8 3.5 5.2l2.6.3v30.8l-2.6.3c-3.5.4-5.3 3.1-3.4 5.3 1.1 1.3 3 1.5 10.9 1.3l9.6-.3v-3c0-2.7-.3-3-3.7-3.3l-3.8-.3V477h4.5c3.9 0 5 .5 8.4 4 2.1 2.2 5.3 6.2 7.2 8.9l3.4 5 12.2.1c6.7 0 12.8-.3 13.7-.6.9-.3 1.6-1.6 1.6-2.9 0-2.3-1.7-3.5-5.1-3.5-2.2 0-2.3-.1-.7-3.5 1.1-2.4 1.4-2.5 10.4-2.5h9.2l1.1 3c.9 2.6.8 3-.9 3-3.3 0-5 1.2-5 3.5 0 3 1.6 3.5 11 3.5 5.9 0 8.1-.4 9.1-1.6 1.6-2 .1-4.8-2.9-5.2-1.6-.3-3.5-3.9-9.5-19l-7.5-18.7h-21.7v3c0 2.8.3 3 4.6 3.5l4.7.5-6.1 15.2-6.1 15.3h-3.7c-2.9 0-4.1-.5-5-2.1-.6-1.2-2.9-4.1-5-6.4l-3.9-4.2 4.1-4.2c3.9-3.9 4.1-4.4 3.6-8.7-.6-5.7-4.3-9.8-10.2-11.3-2.4-.6-9.5-1.1-15.8-1.1-9.2 0-11.7.3-12.8 1.6zm28.9 7.2c1.7 1.3 2.3 2.6 2 4.7-.4 3.8-5.6 6.5-12.5 6.5H565v-13h6.8c4.9 0 7.3.5 9 1.8zm43 8.9l3.1 7.3h-12.8l3.1-7.5c1.7-4.2 3.2-7.4 3.3-7.3.2.2 1.7 3.6 3.3 7.5zm24.6-16.4c-1.1 3 0 5.2 2.9 5.5l2.7.3v30.8l-2.7.3c-2.4.3-2.8.8-2.8 3.3v3l11 .3c13.5.3 15.5-.1 15.5-3.2 0-2.9-1.6-3.6-8.1-3.6H662v-7.7l7.5-.5c6-.4 8.2-1 11.4-3.2 9.2-6.4 9.3-18.2.2-23.8-3.2-2.1-5.1-2.3-17.8-2.6-12.1-.3-14.4-.2-14.9 1.1zm29 7.8c3.8 3 3.6 7.9-.5 11.3-2.5 2.2-4.1 2.6-9 2.6H662v-16h6.4c4.9 0 6.9.5 9 2.1zm16.8-7.9c-1.8 1.8-1.5 3.6.8 5 1.9 1.2 2 2.4 2 16.4v15.2l-2.5.6c-1.8.5-2.5 1.3-2.5 3 0 3.1 1.6 3.6 10.5 3.6 5.4 0 7.6-.4 8.6-1.6 1.8-2.1 0-4.8-3.5-5.2-2.5-.3-2.6-.6-2.6-6.3V476h17v5.9c0 5.8-.1 6-2.7 6.3-2.4.3-2.8.8-2.8 3.3v3h18v-3c0-2.3-.5-3.1-2.2-3.3-2.3-.3-2.3-.5-2.3-15.7 0-14.5.1-15.4 2-16 1.3-.4 2-1.5 2-3 0-3-2.3-3.7-11-3.3-6.5.3-6.5.3-6.5 3.3 0 2.5.4 3 2.8 3.3 2.6.3 2.7.5 2.7 6.3v5.9h-17v-5.9c0-5.7.1-6 2.6-6.3 3.5-.4 5.3-3.1 3.5-5.2-1.7-2-15-2.3-16.9-.4zm46.1-.5c-.7.2-1.3 1.5-1.3 2.9 0 1.7.7 2.5 2.4 3 1.6.4 4.5 3.8 9 10.5 6.1 9.2 6.6 10.3 6.6 15.4v5.5h-3.9c-5.4 0-7.1.8-7.1 3.5 0 3.1 1.5 3.5 14.5 3.5s14.5-.4 14.5-3.5c0-2.7-1.7-3.5-7.1-3.5H764v-5.8c0-5.4.4-6.3 6.5-15.4 4.5-6.8 7.1-9.7 8.7-10 1.8-.2 2.3-.9 2.3-3.3v-3l-7.9-.3c-5.7-.2-8.2.1-8.7 1-1.3 1.9-1.1 3.5.6 5.2 1.4 1.3 1.2 2-1.6 6.7-3.2 5.1-3.2 5.1-4.9 2.9-3.5-4.7-5.5-9.3-4.2-9.8 1.7-.5 1.5-4.9-.4-5.6-1.8-.7-12.3-.7-14.1.1z"/></svg>